<?xml version="1.0" encoding="UTF-8" ?>
<!DOCTYPE svg PUBLIC "-//W3C//DTD SVG 1.1//EN" "http://www.w3.org/Graphics/SVG/1.1/DTD/svg11.dtd">
<svg width="898pt" height="295pt" viewBox="0 0 898 295" version="1.1" xmlns="http://www.w3.org/2000/svg">
<g id="#fefefeff">
</g>
<g id="#069c49ff">
<path fill="#069c49" opacity="1.00" d=" M 71.04 40.04 C 87.70 39.98 104.35 39.94 121.01 40.05 C 137.09 40.59 153.27 46.73 164.28 58.72 C 178.46 75.15 183.52 97.20 185.43 118.34 C 185.93 131.54 188.27 144.83 186.12 157.99 C 185.85 174.28 183.37 190.93 178.22 206.26 C 172.38 209.89 164.71 208.74 158.10 208.99 C 165.29 191.30 166.59 171.93 167.21 153.07 C 169.40 142.10 166.71 131.07 166.73 120.06 C 166.34 111.19 164.01 102.60 161.98 94.00 C 158.36 80.11 149.30 67.07 136.01 60.98 C 128.74 56.81 120.05 57.30 112.01 56.07 C 104.69 55.95 97.37 55.86 90.06 56.05 C 89.55 59.75 92.19 69.24 84.01 66.02 C 80.05 64.96 74.29 68.03 71.14 64.78 C 70.86 56.53 70.96 48.28 71.04 40.04 Z" />
<path fill="#069c49" opacity="1.00" d=" M 33.07 68.03 C 70.02 67.99 106.98 67.95 143.94 68.05 C 149.85 71.58 152.83 78.14 156.04 83.98 C 121.04 84.07 86.04 83.92 51.04 84.04 C 50.98 126.35 50.96 168.66 51.05 210.97 C 56.96 212.31 64.77 208.69 69.87 212.22 C 69.89 215.91 69.95 223.28 69.98 226.96 C 57.66 227.01 45.34 227.09 33.03 226.95 C 33.01 173.98 32.92 121.00 33.07 68.03 Z" />
<path fill="#069c49" opacity="1.00" d=" M 173.87 68.21 C 186.14 69.70 198.79 72.51 208.81 80.19 C 219.58 90.54 224.66 105.41 226.11 120.01 C 228.66 143.58 229.25 167.86 222.88 190.92 C 219.46 200.99 214.59 211.41 205.20 217.17 C 194.72 224.64 181.41 225.56 169.01 226.94 C 143.35 227.05 117.69 227.03 92.03 226.95 C 91.92 221.64 91.92 216.33 92.04 211.03 C 117.03 210.88 142.02 211.16 167.01 210.92 C 177.27 209.66 188.26 207.32 196.12 200.12 C 205.88 189.31 206.44 173.76 207.12 160.00 C 208.47 151.39 208.34 142.62 207.13 134.00 C 206.70 121.72 205.46 108.80 198.96 98.05 C 195.35 91.08 187.13 89.73 181.27 85.74 C 179.21 79.72 176.38 74.03 173.87 68.21 Z" />
<path fill="#069c49" opacity="1.00" d=" M 323.34 71.53 C 338.46 70.38 354.53 70.05 368.72 76.29 C 386.75 83.08 399.37 100.39 403.12 118.98 C 407.66 142.11 407.86 166.84 398.95 188.99 C 391.83 207.24 374.13 220.05 355.01 223.05 C 332.37 226.59 306.57 225.04 288.27 209.68 C 275.22 197.70 269.35 179.87 267.55 162.66 C 266.05 142.28 266.32 120.56 275.98 101.99 C 284.63 83.99 303.82 73.14 323.34 71.53 M 328.32 86.41 C 310.70 87.52 293.48 97.79 286.36 114.30 C 282.51 127.13 282.84 140.76 283.06 154.01 C 284.51 169.55 286.79 186.79 299.27 197.68 C 315.88 211.64 339.83 211.30 359.72 205.68 C 371.55 202.17 380.88 192.45 384.82 180.86 C 391.92 161.74 390.59 140.74 386.88 121.03 C 384.08 111.26 379.80 100.83 370.71 95.31 C 358.56 86.67 342.81 84.94 328.32 86.41 Z" />
<path fill="#069c49" opacity="1.00" d=" M 437.04 73.04 C 442.67 72.99 448.32 72.83 453.97 73.05 C 454.10 117.69 453.87 162.33 454.07 206.97 C 479.37 207.10 504.67 206.90 529.97 207.04 C 530.07 212.35 530.06 217.66 529.96 222.97 C 498.99 223.00 468.00 223.07 437.03 222.94 C 436.98 172.97 436.97 123.01 437.04 73.04 Z" />
<path fill="#069c49" opacity="1.00" d=" M 609.18 73.10 C 614.69 73.01 620.23 72.73 625.76 73.12 C 630.20 87.14 636.53 100.52 641.71 114.29 C 656.23 150.49 670.44 186.80 684.94 223.01 C 679.04 222.90 673.13 223.34 667.27 222.86 C 661.76 207.16 655.14 191.85 649.68 176.13 C 629.78 175.82 609.88 176.08 589.99 176.00 C 585.88 173.43 584.42 176.80 583.41 179.32 C 577.85 193.83 572.07 208.26 566.78 222.87 C 560.87 223.04 554.97 223.13 549.08 222.97 C 567.23 177.44 585.38 131.90 603.45 86.34 C 605.53 82.01 606.52 77.11 609.18 73.10 M 616.24 93.10 C 608.52 115.60 599.12 137.56 591.11 159.98 C 608.44 160.00 625.78 160.08 643.13 159.93 C 634.71 137.65 625.91 115.48 617.74 93.12 C 617.36 93.11 616.61 93.10 616.24 93.10 Z" />
<path fill="#069c49" opacity="1.00" d=" M 708.04 73.04 C 730.02 72.98 752.02 72.95 774.01 73.05 C 787.44 75.17 801.99 80.44 808.98 93.02 C 813.27 99.79 813.95 107.92 814.48 115.71 C 815.66 135.44 801.93 155.71 782.00 159.06 C 780.11 158.74 781.09 161.50 781.66 162.32 C 794.69 182.60 808.52 202.39 821.06 222.97 C 814.72 222.93 808.40 223.25 802.09 222.91 C 788.78 202.79 775.61 182.56 762.84 162.09 C 750.23 161.95 737.62 161.90 725.03 162.06 C 724.89 182.36 725.11 202.67 724.96 222.97 C 719.30 223.00 713.66 223.16 708.03 222.95 C 707.98 172.98 707.97 123.01 708.04 73.04 M 725.07 88.03 C 724.88 107.67 725.02 127.32 725.03 146.96 C 741.64 146.48 758.43 148.28 774.93 145.82 C 783.92 145.27 792.02 140.02 795.71 131.73 C 799.05 121.56 799.93 108.74 793.41 99.63 C 788.80 91.18 778.54 89.55 769.94 88.20 C 754.98 87.76 740.02 88.06 725.07 88.03 Z" />
<path fill="#069c49" opacity="1.00" d=" M 71.07 86.03 C 77.36 86.02 83.67 85.81 89.97 86.07 C 90.10 137.03 89.88 188.00 90.06 238.97 C 107.93 239.32 128.20 240.84 143.35 229.36 C 151.24 228.78 159.17 228.86 167.08 229.07 C 164.03 237.23 155.51 241.87 148.78 246.76 C 139.00 252.63 127.35 255.14 116.01 255.02 C 101.02 254.95 86.03 255.08 71.04 254.96 C 71.00 198.65 70.93 142.34 71.07 86.03 Z" />
</g>
</svg>
